<svg width="40" height="40" viewBox="0 0 40 40" fill="none" xmlns="http://www.w3.org/2000/svg">
<g clip-path="url(#clip0_4157_54)">
<path d="M30.472 4.65967L21.4341 4.61321C21.2173 4.61232 21.0024 4.65438 20.8018 4.73696C20.6013 4.81955 20.4191 4.94102 20.2657 5.09437C20.1124 5.24773 19.9909 5.42993 19.9083 5.63047C19.8257 5.83101 19.7837 6.04591 19.7846 6.26279C19.7859 6.6968 19.9588 7.11268 20.2657 7.41957C20.5726 7.72647 20.9885 7.89946 21.4225 7.90075L29.7285 7.9356L6.04195 31.6222C5.73385 31.9303 5.56076 32.3481 5.56076 32.7838C5.56076 33.2195 5.73385 33.6374 6.04195 33.9455C6.35004 34.2536 6.76791 34.4267 7.20362 34.4267C7.63933 34.4267 8.0572 34.2536 8.3653 33.9455L32.1216 10.1892L32.1099 18.5882C32.1091 18.805 32.1511 19.0199 32.2337 19.2205C32.3163 19.421 32.4378 19.6032 32.5911 19.7566C32.7445 19.9099 32.9267 20.0314 33.1272 20.114C33.3277 20.1966 33.5426 20.2386 33.7595 20.2377C33.9764 20.2386 34.1913 20.1966 34.3918 20.114C34.5924 20.0314 34.7746 19.9099 34.9279 19.7566C35.0813 19.6032 35.2028 19.421 35.2853 19.2205C35.3679 19.0199 35.41 18.805 35.4091 18.5882L35.3975 9.58518C35.3967 8.2791 34.8775 7.02675 33.9539 6.10322C33.0304 5.17968 31.7781 4.66048 30.472 4.65967Z" fill="white"/>
</g>
<defs>
<clipPath id="clip0_4157_54">
<rect width="39.4286" height="39.4286" fill="white" transform="translate(0.285767 0.285645)"/>
</clipPath>
</defs>
</svg>
