<svg width="40" height="40" viewBox="0 0 40 40" fill="none" xmlns="http://www.w3.org/2000/svg">
<g clip-path="url(#clip0_17_44)">
<circle cx="20" cy="20" r="19.5" stroke="white"/>
<g clip-path="url(#clip1_17_44)">
<path d="M32.1791 17.7111L27.9405 13.4287C27.8387 13.3261 27.7176 13.2446 27.5841 13.189C27.4506 13.1334 27.3075 13.1047 27.1629 13.1047C27.0183 13.1047 26.8752 13.1334 26.7417 13.189C26.6082 13.2446 26.4871 13.3261 26.3853 13.4287C26.1813 13.6339 26.0668 13.9115 26.0668 14.2008C26.0668 14.4902 26.1813 14.7678 26.3853 14.973L30.2843 18.9049H7.95242C7.66194 18.9049 7.38336 19.0203 7.17797 19.2257C6.97257 19.4311 6.85718 19.7097 6.85718 20.0001C6.85718 20.2906 6.97257 20.5692 7.17797 20.7746C7.38336 20.98 7.66194 21.0954 7.95242 21.0954H30.35L26.3853 25.0492C26.2826 25.151 26.2011 25.2721 26.1455 25.4056C26.0899 25.5391 26.0613 25.6822 26.0613 25.8268C26.0613 25.9714 26.0899 26.1145 26.1455 26.248C26.2011 26.3815 26.2826 26.5026 26.3853 26.6044C26.4871 26.7071 26.6082 26.7886 26.7417 26.8442C26.8752 26.8998 27.0183 26.9284 27.1629 26.9284C27.3075 26.9284 27.4506 26.8998 27.5841 26.8442C27.7176 26.7886 27.8387 26.7071 27.9405 26.6044L32.1791 22.3549C32.7944 21.7388 33.14 20.9037 33.14 20.033C33.14 19.1623 32.7944 18.3272 32.1791 17.7111Z" fill="white"/>
</g>
</g>
<defs>
<clipPath id="clip0_17_44">
<rect width="40" height="40" fill="white"/>
</clipPath>
<clipPath id="clip1_17_44">
<rect width="26.2857" height="26.2857" fill="white" transform="translate(6.85718 6.85718)"/>
</clipPath>
</defs>
</svg>
