<svg width="40" height="40" viewBox="0 0 40 40" fill="none" xmlns="http://www.w3.org/2000/svg">
<g clip-path="url(#clip0_17_48)">
<circle cx="20" cy="20" r="19.5" transform="rotate(180 20 20)" stroke="white"/>
<g clip-path="url(#clip1_17_48)">
<path d="M7.82092 22.2889L12.0595 26.5713C12.1613 26.674 12.2824 26.7554 12.4159 26.811C12.5494 26.8666 12.6925 26.8953 12.8371 26.8953C12.9817 26.8953 13.1248 26.8666 13.2583 26.811C13.3918 26.7554 13.5129 26.674 13.6147 26.5713C13.8187 26.3661 13.9332 26.0885 13.9332 25.7992C13.9332 25.5098 13.8187 25.2322 13.6147 25.027L9.71568 21.0951L32.0476 21.0951C32.3381 21.0951 32.6166 20.9797 32.822 20.7743C33.0274 20.5689 33.1428 20.2903 33.1428 19.9999C33.1428 19.7094 33.0274 19.4308 32.822 19.2254C32.6166 19.02 32.3381 18.9046 32.0476 18.9046L9.64996 18.9046L13.6147 14.9508C13.7174 14.849 13.7989 14.7279 13.8545 14.5944C13.9101 14.4609 13.9387 14.3178 13.9387 14.1732C13.9387 14.0286 13.9101 13.8855 13.8545 13.752C13.7989 13.6185 13.7174 13.4974 13.6147 13.3956C13.5129 13.2929 13.3918 13.2114 13.2583 13.1558C13.1248 13.1002 12.9817 13.0716 12.8371 13.0716C12.6925 13.0716 12.5494 13.1002 12.4159 13.1558C12.2824 13.2114 12.1613 13.2929 12.0595 13.3956L7.82092 17.6451C7.20561 18.2612 6.86 19.0963 6.86 19.967C6.86 20.8377 7.20561 21.6728 7.82092 22.2889Z" fill="white"/>
</g>
</g>
<defs>
<clipPath id="clip0_17_48">
<rect width="40" height="40" fill="white" transform="translate(40 40) rotate(180)"/>
</clipPath>
<clipPath id="clip1_17_48">
<rect width="26.2857" height="26.2857" fill="white" transform="translate(33.1428 33.1428) rotate(180)"/>
</clipPath>
</defs>
</svg>
