<svg width="50" height="50" viewBox="0 0 50 50" fill="none" xmlns="http://www.w3.org/2000/svg">
<g clip-path="url(#clip0_8_11)">
<path d="M25 16.6666C23.3518 16.6666 21.7406 17.1554 20.3702 18.071C18.9998 18.9867 17.9317 20.2882 17.301 21.8109C16.6702 23.3336 16.5052 25.0092 16.8268 26.6257C17.1483 28.2422 17.942 29.7271 19.1074 30.8925C20.2728 32.058 21.7577 32.8516 23.3742 33.1732C24.9907 33.4947 26.6663 33.3297 28.189 32.699C29.7117 32.0682 31.0132 31.0001 31.9289 29.6297C32.8446 28.2593 33.3333 26.6481 33.3333 25C33.3333 22.7898 32.4553 20.6702 30.8925 19.1074C29.3297 17.5446 27.2101 16.6666 25 16.6666ZM25 29.1666C24.1759 29.1666 23.3703 28.9223 22.6851 28.4644C21.9999 28.0066 21.4658 27.3558 21.1505 26.5945C20.8351 25.8331 20.7526 24.9953 20.9134 24.1871C21.0741 23.3788 21.471 22.6364 22.0537 22.0537C22.6364 21.471 23.3788 21.0741 24.1871 20.9134C24.9953 20.7526 25.8331 20.8351 26.5945 21.1505C27.3558 21.4658 28.0066 21.9999 28.4644 22.6851C28.9223 23.3703 29.1666 24.1759 29.1666 25C29.1666 26.105 28.7276 27.1648 27.9462 27.9462C27.1648 28.7276 26.105 29.1666 25 29.1666Z" fill="#2CDEF5"/>
<path d="M44.3625 28.9583L43.4375 28.425C43.854 26.1593 43.854 23.8366 43.4375 21.5708L44.3625 21.0375C45.0739 20.6271 45.6974 20.0806 46.1975 19.4293C46.6977 18.7779 47.0646 18.0345 47.2774 17.2413C47.4902 16.4481 47.5447 15.6208 47.4378 14.8066C47.3308 13.9924 47.0646 13.2072 46.6542 12.4958C46.2438 11.7845 45.6973 11.161 45.046 10.6608C44.3946 10.1607 43.6511 9.79376 42.858 9.58096C42.0648 9.36816 41.2375 9.31367 40.4233 9.4206C39.6091 9.52753 38.8239 9.79379 38.1125 10.2042L37.1854 10.7396C35.4345 9.24358 33.4222 8.08385 31.25 7.31875V6.25C31.25 4.5924 30.5915 3.00268 29.4194 1.83058C28.2473 0.65848 26.6576 0 25 0C23.3424 0 21.7527 0.65848 20.5806 1.83058C19.4085 3.00268 18.75 4.5924 18.75 6.25V7.31875C16.5779 8.0866 14.5664 9.24917 12.8167 10.7479L11.8854 10.2083C10.4489 9.37953 8.74186 9.15536 7.13999 9.58513C5.53812 10.0149 4.17258 11.0634 3.34378 12.5C2.51498 13.9366 2.2908 15.6436 2.72057 17.2455C3.15035 18.8473 4.19886 20.2129 5.63544 21.0417L6.56044 21.575C6.14401 23.8407 6.14401 26.1634 6.56044 28.4292L5.63544 28.9625C4.19886 29.7913 3.15035 31.1568 2.72057 32.7587C2.2908 34.3606 2.51498 36.0676 3.34378 37.5042C4.17258 38.9408 5.53812 39.9893 7.13999 40.419C8.74186 40.8488 10.4489 40.6246 11.8854 39.7958L12.8125 39.2604C14.5641 40.7566 16.5771 41.9164 18.75 42.6812V43.75C18.75 45.4076 19.4085 46.9973 20.5806 48.1694C21.7527 49.3415 23.3424 50 25 50C26.6576 50 28.2473 49.3415 29.4194 48.1694C30.5915 46.9973 31.25 45.4076 31.25 43.75V42.6812C33.4221 41.9134 35.4337 40.7508 37.1834 39.2521L38.1146 39.7896C39.5512 40.6184 41.2582 40.8426 42.8601 40.4128C44.4619 39.983 45.8275 38.9345 46.6563 37.4979C47.4851 36.0613 47.7093 34.3543 47.2795 32.7525C46.8497 31.1506 45.8012 29.7851 44.3646 28.9562L44.3625 28.9583ZM39.0542 21.0917C39.7597 23.648 39.7597 26.3478 39.0542 28.9042C38.931 29.3491 38.9591 29.8224 39.1341 30.2496C39.309 30.6768 39.621 31.0339 40.0209 31.2646L42.2792 32.5687C42.758 32.845 43.1074 33.3002 43.2506 33.834C43.3938 34.3679 43.319 34.9369 43.0427 35.4156C42.7665 35.8944 42.3113 36.2438 41.7774 36.387C41.2435 36.5302 40.6746 36.4554 40.1959 36.1792L37.9334 34.8708C37.5331 34.639 37.0672 34.547 36.6089 34.6092C36.1506 34.6715 35.726 34.8844 35.4021 35.2146C33.5478 37.1076 31.2116 38.4583 28.6459 39.1208C28.198 39.236 27.8012 39.4968 27.5179 39.8623C27.2347 40.2278 27.081 40.6772 27.0813 41.1396V43.75C27.0813 44.3025 26.8618 44.8324 26.4711 45.2231C26.0804 45.6138 25.5505 45.8333 24.9979 45.8333C24.4454 45.8333 23.9155 45.6138 23.5248 45.2231C23.1341 44.8324 22.9146 44.3025 22.9146 43.75V41.1417C22.9148 40.6793 22.7612 40.2299 22.478 39.8644C22.1947 39.4989 21.7979 39.2381 21.35 39.1229C18.7841 38.4577 16.4486 37.1041 14.5959 35.2083C14.272 34.8782 13.8474 34.6652 13.3891 34.603C12.9308 34.5407 12.4648 34.6328 12.0646 34.8646L9.80628 36.1708C9.56926 36.3098 9.30709 36.4005 9.03487 36.4377C8.76266 36.4749 8.48576 36.4579 8.22014 36.3877C7.95452 36.3175 7.70541 36.1954 7.48715 36.0285C7.2689 35.8616 7.08582 35.6532 6.94844 35.4153C6.81106 35.1773 6.7221 34.9146 6.68669 34.6421C6.65128 34.3696 6.6701 34.0929 6.74209 33.8277C6.81408 33.5626 6.9378 33.3143 7.10614 33.0971C7.27448 32.88 7.4841 32.6983 7.72294 32.5625L9.98128 31.2583C10.3812 31.0276 10.6931 30.6706 10.8681 30.2434C11.043 29.8161 11.0711 29.3429 10.9479 28.8979C10.2424 26.3415 10.2424 23.6418 10.9479 21.0854C11.0689 20.6414 11.0395 20.1699 10.8642 19.7444C10.689 19.3189 10.3778 18.9633 9.97919 18.7333L7.72086 17.4292C7.24209 17.1529 6.89268 16.6978 6.74948 16.1639C6.60629 15.63 6.68105 15.0611 6.95732 14.5823C7.23359 14.1035 7.68873 13.7541 8.22262 13.6109C8.75652 13.4677 9.32542 13.5425 9.80419 13.8187L12.0667 15.1271C12.4658 15.3594 12.9308 15.4525 13.3886 15.3918C13.8464 15.3311 14.2711 15.12 14.5959 14.7917C16.4502 12.8986 18.7863 11.548 21.3521 10.8854C21.8013 10.7699 22.1992 10.5078 22.4826 10.1406C22.766 9.77344 22.9188 9.32217 22.9167 8.85833V6.25C22.9167 5.69747 23.1362 5.16756 23.5269 4.77686C23.9176 4.38616 24.4475 4.16667 25 4.16667C25.5526 4.16667 26.0825 4.38616 26.4732 4.77686C26.8639 5.16756 27.0834 5.69747 27.0834 6.25V8.85833C27.0831 9.32074 27.2367 9.77009 27.52 10.1356C27.8033 10.5011 28.2001 10.7619 28.6479 10.8771C31.2146 11.542 33.5508 12.8956 35.4042 14.7917C35.7281 15.1218 36.1527 15.3348 36.611 15.397C37.0692 15.4593 37.5352 15.3672 37.9354 15.1354L40.1938 13.8292C40.4308 13.6902 40.693 13.5995 40.9652 13.5623C41.2374 13.5251 41.5143 13.5421 41.7799 13.6123C42.0455 13.6825 42.2947 13.8046 42.5129 13.9715C42.7312 14.1384 42.9142 14.3468 43.0516 14.5847C43.189 14.8227 43.278 15.0854 43.3134 15.3579C43.3488 15.6304 43.33 15.9071 43.258 16.1723C43.186 16.4374 43.0623 16.6857 42.8939 16.9029C42.7256 17.12 42.516 17.3017 42.2771 17.4375L40.0188 18.7417C39.621 18.9723 39.3106 19.3281 39.1362 19.7535C38.9617 20.179 38.9329 20.6502 39.0542 21.0938V21.0917Z" fill="#2CDEF5"/>
</g>
<defs>
<clipPath id="clip0_8_11">
<rect width="50" height="50" fill="white"/>
</clipPath>
</defs>
</svg>
