<svg width="50" height="50" viewBox="0 0 50 50" fill="none" xmlns="http://www.w3.org/2000/svg">
<g clip-path="url(#clip0_8_14)">
<path d="M38.8667 1.93745L13.4667 27.3374C12.4965 28.3023 11.7275 29.4501 11.2039 30.7142C10.6804 31.9783 10.4128 33.3338 10.4167 34.702V37.4999C10.4167 38.0525 10.6362 38.5824 11.0269 38.9731C11.4176 39.3638 11.9475 39.5833 12.5 39.5833H15.2979C16.6662 39.5871 18.0216 39.3196 19.2857 38.796C20.5499 38.2725 21.6976 37.5034 22.6625 36.5333L48.0625 11.1333C49.28 9.9128 49.9637 8.25927 49.9637 6.53536C49.9637 4.81146 49.28 3.15793 48.0625 1.93745C46.8243 0.753892 45.1774 0.0933838 43.4646 0.0933838C41.7517 0.0933838 40.1048 0.753892 38.8667 1.93745ZM45.1167 8.18745L19.7167 33.5874C18.5419 34.755 16.9542 35.4123 15.2979 35.4166H14.5833V34.702C14.5877 33.0458 15.2449 31.458 16.4125 30.2833L41.8125 4.88328C42.2575 4.45819 42.8492 4.22097 43.4646 4.22097C44.08 4.22097 44.6717 4.45819 45.1167 4.88328C45.554 5.32185 45.7997 5.91597 45.7997 6.53536C45.7997 7.15476 45.554 7.74887 45.1167 8.18745Z" fill="#2CDEF5"/>
<path d="M47.9167 18.7063C47.3641 18.7063 46.8342 18.9257 46.4435 19.3164C46.0528 19.7071 45.8333 20.2371 45.8333 20.7896V31.25H37.5C35.8424 31.25 34.2527 31.9085 33.0806 33.0806C31.9085 34.2527 31.25 35.8424 31.25 37.5V45.8333H10.4167C8.75906 45.8333 7.16935 45.1749 5.99725 44.0028C4.82515 42.8307 4.16667 41.2409 4.16667 39.5833V10.4167C4.16667 8.75906 4.82515 7.16935 5.99725 5.99725C7.16935 4.82515 8.75906 4.16667 10.4167 4.16667H29.2542C29.8067 4.16667 30.3366 3.94717 30.7273 3.55647C31.118 3.16577 31.3375 2.63587 31.3375 2.08333C31.3375 1.5308 31.118 1.0009 30.7273 0.610194C30.3366 0.219493 29.8067 0 29.2542 0L10.4167 0C7.65501 0.00330804 5.00741 1.10184 3.05462 3.05463C1.10184 5.00741 0.00330804 7.65501 0 10.4167L0 39.5833C0.00330804 42.345 1.10184 44.9926 3.05462 46.9454C5.00741 48.8982 7.65501 49.9967 10.4167 50H34.0479C35.4165 50.0039 36.7722 49.7364 38.0367 49.2128C39.3012 48.6893 40.4493 47.9202 41.4146 46.95L46.9479 41.4125C47.9182 40.4477 48.6876 39.3 49.2115 38.0359C49.7353 36.7717 50.0034 35.4163 50 34.0479V20.7896C50 20.2371 49.7805 19.7071 49.3898 19.3164C48.9991 18.9257 48.4692 18.7063 47.9167 18.7063ZM38.4688 44.0042C37.6313 44.8396 36.5722 45.4179 35.4167 45.6708V37.5C35.4167 36.9475 35.6362 36.4176 36.0269 36.0269C36.4176 35.6362 36.9475 35.4167 37.5 35.4167H45.6771C45.4194 36.5698 44.8417 37.6269 44.0104 38.4667L38.4688 44.0042Z" fill="#2CDEF5"/>
</g>
<defs>
<clipPath id="clip0_8_14">
<rect width="50" height="50" fill="white"/>
</clipPath>
</defs>
</svg>
