<svg width="20" height="20" viewBox="0 0 20 20" fill="none" xmlns="http://www.w3.org/2000/svg">
<g clip-path="url(#clip0_18_130)">
<path d="M10.8334 0.833199C10.8334 0.612186 10.9212 0.400224 11.0774 0.243944C11.2337 0.0876633 11.4457 -0.000134037 11.6667 -0.000134037C13.8761 0.00229229 15.9943 0.881045 17.5566 2.44332C19.1188 4.0056 19.9976 6.12381 20 8.3332C20 8.55421 19.9122 8.76618 19.756 8.92246C19.5997 9.07874 19.3877 9.16653 19.1667 9.16653C18.9457 9.16653 18.7337 9.07874 18.5774 8.92246C18.4212 8.76618 18.3334 8.55421 18.3334 8.3332C18.3314 6.5657 17.6284 4.87116 16.3785 3.62135C15.1287 2.37153 13.4342 1.66852 11.6667 1.66653C11.4457 1.66653 11.2337 1.57874 11.0774 1.42246C10.9212 1.26617 10.8334 1.05421 10.8334 0.833199ZM11.6667 4.99987C12.5508 4.99987 13.3986 5.35106 14.0237 5.97618C14.6488 6.6013 15 7.44914 15 8.3332C15 8.55421 15.0878 8.76618 15.2441 8.92246C15.4004 9.07874 15.6123 9.16653 15.8334 9.16653C16.0544 9.16653 16.2663 9.07874 16.4226 8.92246C16.5789 8.76618 16.6667 8.55421 16.6667 8.3332C16.6654 7.00752 16.1382 5.73652 15.2008 4.79913C14.2634 3.86173 12.9924 3.33452 11.6667 3.3332C11.4457 3.3332 11.2337 3.421 11.0774 3.57728C10.9212 3.73356 10.8334 3.94552 10.8334 4.16653C10.8334 4.38755 10.9212 4.59951 11.0774 4.75579C11.2337 4.91207 11.4457 4.99987 11.6667 4.99987ZM19.2442 13.949C19.7271 14.4333 19.9983 15.0893 19.9983 15.7732C19.9983 16.4571 19.7271 17.1131 19.2442 17.5974L18.4859 18.4715C11.6609 25.0057 -4.94747 8.40153 1.48586 1.55487L2.4442 0.721533C2.929 0.252097 3.57914 -0.00759314 4.25395 -0.001355C4.92876 0.00488313 5.57398 0.276548 6.05003 0.754866C6.07586 0.780699 7.62003 2.78653 7.62003 2.78653C8.07822 3.26789 8.33328 3.90731 8.3322 4.57187C8.33111 5.23643 8.07396 5.87501 7.6142 6.35487L6.6492 7.5682C7.18324 8.86579 7.96842 10.0451 8.95962 11.0383C9.95082 12.0315 11.1285 12.819 12.425 13.3557L13.6459 12.3849C14.1258 11.9255 14.7642 11.6686 15.4286 11.6677C16.093 11.6667 16.7322 11.9218 17.2134 12.3799C17.2134 12.3799 19.2184 13.9232 19.2442 13.949ZM18.0975 15.1607C18.0975 15.1607 16.1034 13.6265 16.0775 13.6007C15.9058 13.4305 15.6739 13.335 15.4321 13.335C15.1903 13.335 14.9584 13.4305 14.7867 13.6007C14.7642 13.624 13.0834 14.9632 13.0834 14.9632C12.9701 15.0534 12.8353 15.1125 12.6922 15.1347C12.5492 15.1569 12.4028 15.1414 12.2675 15.0899C10.5879 14.4645 9.06231 13.4855 7.79406 12.2191C6.52581 10.9527 5.54453 9.42856 4.9167 7.74987C4.86103 7.61275 4.84288 7.46327 4.86412 7.31682C4.88535 7.17036 4.94521 7.0322 5.03753 6.91653C5.03753 6.91653 6.3767 5.23487 6.3992 5.2132C6.56942 5.04152 6.66493 4.80955 6.66493 4.56778C6.66493 4.32602 6.56942 4.09404 6.3992 3.92237C6.37336 3.89737 4.8392 1.90153 4.8392 1.90153C4.66495 1.74529 4.43753 1.66161 4.20357 1.66765C3.96961 1.6737 3.74681 1.769 3.58086 1.93403L2.62253 2.76737C-2.07914 8.4207 12.3134 22.0149 17.2675 17.3332L18.0267 16.4582C18.2046 16.2934 18.3114 16.0659 18.3247 15.8238C18.3379 15.5817 18.2564 15.3439 18.0975 15.1607Z" fill="#2CDEF5"/>
</g>
<defs>
<clipPath id="clip0_18_130">
<rect width="20" height="20" fill="white"/>
</clipPath>
</defs>
</svg>
