<svg width="32" height="32" viewBox="0 0 32 32" fill="none" xmlns="http://www.w3.org/2000/svg">
<g clip-path="url(#clip0_17_64)">
<path d="M4.19031e-05 9.33325C-0.000972799 9.15778 0.0326614 8.98383 0.0990142 8.82138C0.165367 8.65893 0.263136 8.51117 0.386711 8.38658C0.510662 8.26161 0.658127 8.16242 0.820606 8.09473C0.983086 8.02704 1.15736 7.99219 1.33338 7.99219C1.50939 7.99219 1.68367 8.02704 1.84615 8.09473C2.00863 8.16242 2.15609 8.26161 2.28004 8.38658L13.1734 19.2799C13.9234 20.029 14.94 20.4497 16 20.4497C17.06 20.4497 18.0767 20.029 18.8267 19.2799L29.72 8.38659C29.9711 8.13551 30.3116 7.99446 30.6667 7.99446C31.0218 7.99446 31.3623 8.13551 31.6134 8.38659C31.8644 8.63766 32.0055 8.97818 32.0055 9.33325C32.0055 9.68832 31.8644 10.0288 31.6134 10.2799L20.72 21.1733C20.1008 21.7941 19.3651 22.2867 18.5552 22.6228C17.7452 22.9588 16.8769 23.1318 16 23.1318C15.1231 23.1318 14.2549 22.9588 13.4449 22.6228C12.635 22.2867 11.8993 21.7941 11.28 21.1733L0.386711 10.2799C0.263136 10.1553 0.165367 10.0076 0.0990142 9.84513C0.0326614 9.68268 -0.000972814 9.50873 4.19031e-05 9.33325Z" fill="#2CDEF5"/>
</g>
<defs>
<clipPath id="clip0_17_64">
<rect width="32" height="32" fill="white" transform="translate(32) rotate(90)"/>
</clipPath>
</defs>
</svg>
