<svg width="50" height="50" viewBox="0 0 50 50" fill="none" xmlns="http://www.w3.org/2000/svg">
<g clip-path="url(#clip0_8_9)">
<path d="M15.625 27.0833C13.7708 27.0833 11.9582 26.5335 10.4165 25.5034C8.87482 24.4732 7.6732 23.0091 6.96363 21.296C6.25406 19.5829 6.0684 17.6979 6.43014 15.8794C6.79187 14.0608 7.68476 12.3903 8.99587 11.0792C10.307 9.76809 11.9775 8.87521 13.796 8.51348C15.6146 8.15174 17.4996 8.3374 19.2127 9.04697C20.9257 9.75654 22.3899 10.9582 23.42 12.4999C24.4502 14.0416 25 15.8541 25 17.7083C24.9972 20.1939 24.0086 22.5769 22.2511 24.3344C20.4935 26.092 18.1106 27.0806 15.625 27.0833ZM15.625 12.5C14.5949 12.5 13.5879 12.8055 12.7314 13.3778C11.8749 13.9501 11.2073 14.7635 10.8131 15.7152C10.4189 16.6669 10.3158 17.7141 10.5167 18.7244C10.7177 19.7348 11.2138 20.6628 11.9422 21.3912C12.6706 22.1196 13.5986 22.6156 14.6089 22.8166C15.6192 23.0176 16.6664 22.9144 17.6181 22.5202C18.5698 22.126 19.3833 21.4584 19.9556 20.6019C20.5279 19.7454 20.8333 18.7384 20.8333 17.7083C20.8333 16.327 20.2846 15.0022 19.3078 14.0255C18.3311 13.0487 17.0063 12.5 15.625 12.5ZM31.25 47.9167V46.875C31.25 42.731 29.6038 38.7567 26.6735 35.8265C23.7433 32.8962 19.769 31.25 15.625 31.25C11.481 31.25 7.50671 32.8962 4.57646 35.8265C1.6462 38.7567 0 42.731 0 46.875L0 47.9167C0 48.4692 0.219493 48.9991 0.610194 49.3898C1.0009 49.7805 1.5308 50 2.08333 50C2.63587 50 3.16577 49.7805 3.55647 49.3898C3.94717 48.9991 4.16667 48.4692 4.16667 47.9167V46.875C4.16667 43.8361 5.37388 40.9216 7.52273 38.7727C9.67159 36.6239 12.5861 35.4167 15.625 35.4167C18.6639 35.4167 21.5784 36.6239 23.7273 38.7727C25.8761 40.9216 27.0833 43.8361 27.0833 46.875V47.9167C27.0833 48.4692 27.3028 48.9991 27.6935 49.3898C28.0842 49.7805 28.6141 50 29.1667 50C29.7192 50 30.2491 49.7805 30.6398 49.3898C31.0305 48.9991 31.25 48.4692 31.25 47.9167ZM50 37.5C49.9999 34.6848 49.185 31.9297 47.6536 29.5674C46.1221 27.2052 43.9397 25.3366 41.3697 24.1874C38.7997 23.0382 35.952 22.6575 33.1703 23.0911C30.3887 23.5248 27.792 24.7543 25.6937 26.6313C25.487 26.8129 25.3183 27.0337 25.1974 27.281C25.0765 27.5282 25.0058 27.797 24.9893 28.0717C24.9729 28.3464 25.011 28.6217 25.1016 28.8815C25.1921 29.1414 25.3332 29.3808 25.5168 29.5859C25.7004 29.7909 25.9227 29.9576 26.1711 30.0762C26.4194 30.1948 26.6888 30.263 26.9637 30.2769C27.2385 30.2908 27.5134 30.2501 27.7725 30.1572C28.0315 30.0642 28.2696 29.9209 28.4729 29.7354C29.9718 28.395 31.8265 27.5171 33.8133 27.2076C35.8001 26.8981 37.8341 27.1703 39.6696 27.9913C41.5051 28.8122 43.0638 30.1469 44.1576 31.8342C45.2513 33.5215 45.8333 35.4892 45.8333 37.5C45.8333 38.0525 46.0528 38.5824 46.4435 38.9731C46.8342 39.3638 47.3641 39.5833 47.9167 39.5833C48.4692 39.5833 48.9991 39.3638 49.3898 38.9731C49.7805 38.5824 50 38.0525 50 37.5ZM36.4583 18.75C34.6041 18.75 32.7916 18.2002 31.2499 17.17C29.7082 16.1399 28.5065 14.6757 27.797 12.9627C27.0874 11.2496 26.9017 9.3646 27.2635 7.54603C27.6252 5.72746 28.5181 4.057 29.8292 2.74588C31.1403 1.43476 32.8108 0.541879 34.6294 0.180142C36.4479 -0.181594 38.3329 0.00406206 40.046 0.713634C41.759 1.42321 43.2232 2.62482 44.2534 4.16653C45.2835 5.70824 45.8333 7.5208 45.8333 9.375C45.8306 11.8606 44.842 14.2435 43.0844 16.0011C41.3269 17.7586 38.9439 18.7472 36.4583 18.75ZM36.4583 4.16667C35.4282 4.16667 34.4212 4.47213 33.5647 5.04443C32.7082 5.61673 32.0407 6.43016 31.6465 7.38186C31.2523 8.33356 31.1491 9.38078 31.3501 10.3911C31.551 11.4014 32.0471 12.3295 32.7755 13.0579C33.5039 13.7863 34.4319 14.2823 35.4422 14.4833C36.4526 14.6842 37.4998 14.5811 38.4515 14.1869C39.4032 13.7927 40.2166 13.1251 40.7889 12.2686C41.3612 11.4121 41.6667 10.4051 41.6667 9.375C41.6667 7.99367 41.1179 6.66891 40.1412 5.69216C39.1644 4.7154 37.8397 4.16667 36.4583 4.16667Z" fill="#2CDEF5"/>
</g>
<defs>
<clipPath id="clip0_8_9">
<rect width="50" height="50" fill="white"/>
</clipPath>
</defs>
</svg>
