<svg width="25" height="15" viewBox="0 0 25 18" fill="none" xmlns="http://www.w3.org/2000/svg">
<path d="M23.2489 0.615634L8.85411 15.0094C8.75733 15.1065 8.64231 15.1836 8.51567 15.2362C8.38902 15.2889 8.25323 15.3159 8.11609 15.3159C7.97895 15.3159 7.84316 15.2889 7.71651 15.2362C7.58986 15.1836 7.47485 15.1065 7.37807 15.0094L1.8114 9.43751C1.71462 9.34034 1.59961 9.26325 1.47296 9.21064C1.34631 9.15804 1.21052 9.13096 1.07338 9.13096C0.936241 9.13096 0.800452 9.15804 0.673803 9.21064C0.547155 9.26325 0.432141 9.34034 0.33536 9.43751C0.238197 9.53429 0.1611 9.6493 0.108494 9.77595C0.0558884 9.9026 0.0288086 10.0384 0.0288086 10.1755C0.0288086 10.3127 0.0558884 10.4485 0.108494 10.5751C0.1611 10.7018 0.238197 10.8168 0.33536 10.9136L5.90411 16.4813C6.49156 17.0676 7.28765 17.3969 8.11765 17.3969C8.94765 17.3969 9.74375 17.0676 10.3312 16.4813L24.7249 2.09063C24.8219 1.99387 24.8989 1.87892 24.9514 1.75237C25.0039 1.62582 25.031 1.49015 25.031 1.35313C25.031 1.21612 25.0039 1.08045 24.9514 0.953896C24.8989 0.827344 24.8219 0.712395 24.7249 0.615634C24.6282 0.51847 24.5131 0.441374 24.3865 0.388768C24.2599 0.336162 24.1241 0.309082 23.9869 0.309082C23.8498 0.309082 23.714 0.336162 23.5873 0.388768C23.4607 0.441374 23.3457 0.51847 23.2489 0.615634Z" fill="#2CDEF5"/>
</svg>
