<svg width="20" height="21" viewBox="0 0 20 21" fill="none" xmlns="http://www.w3.org/2000/svg">
<g clip-path="url(#clip0_18_134)">
<path d="M15.8333 1.3335H4.16667C3.062 1.33482 2.00296 1.77423 1.22185 2.55535C0.440735 3.33646 0.00132321 4.3955 0 5.50016L0 15.5002C0.00132321 16.6048 0.440735 17.6639 1.22185 18.445C2.00296 19.2261 3.062 19.6655 4.16667 19.6668H15.8333C16.938 19.6655 17.997 19.2261 18.7782 18.445C19.5593 17.6639 19.9987 16.6048 20 15.5002V5.50016C19.9987 4.3955 19.5593 3.33646 18.7782 2.55535C17.997 1.77423 16.938 1.33482 15.8333 1.3335ZM4.16667 3.00016H15.8333C16.3323 3.00114 16.8196 3.15143 17.2325 3.43167C17.6453 3.71191 17.9649 4.10929 18.15 4.57266L11.7683 10.9552C11.2987 11.4229 10.6628 11.6856 10 11.6856C9.33715 11.6856 8.70131 11.4229 8.23167 10.9552L1.85 4.57266C2.03512 4.10929 2.35468 3.71191 2.76754 3.43167C3.1804 3.15143 3.66768 3.00114 4.16667 3.00016ZM15.8333 18.0002H4.16667C3.50363 18.0002 2.86774 17.7368 2.3989 17.2679C1.93006 16.7991 1.66667 16.1632 1.66667 15.5002V6.75016L7.05333 12.1335C7.83552 12.9137 8.89521 13.3519 10 13.3519C11.1048 13.3519 12.1645 12.9137 12.9467 12.1335L18.3333 6.75016V15.5002C18.3333 16.1632 18.0699 16.7991 17.6011 17.2679C17.1323 17.7368 16.4964 18.0002 15.8333 18.0002Z" fill="#2CDEF5"/>
</g>
<defs>
<clipPath id="clip0_18_134">
<rect width="20" height="20" fill="white" transform="translate(0 0.5)"/>
</clipPath>
</defs>
</svg>
