<svg width="28" height="28" viewBox="0 0 28 28" fill="none" xmlns="http://www.w3.org/2000/svg">
<path d="M27.415 0.585088C27.1635 0.333753 26.8496 0.154007 26.5055 0.0643639C26.1614 -0.0252789 25.7997 -0.0215769 25.4575 0.0750882H25.4388L1.44626 7.35509C1.0557 7.46741 0.708631 7.69603 0.451256 8.01053C0.193882 8.32502 0.0384193 8.71046 0.00556963 9.11552C-0.02728 9.52057 0.0640423 9.92602 0.267376 10.2779C0.47071 10.6297 0.776406 10.9113 1.14376 11.0851L11.8463 16.1538L16.915 26.8563C17.075 27.1991 17.3298 27.4889 17.6492 27.6915C17.9686 27.8942 18.3393 28.0013 18.7175 28.0001C18.775 28.0001 18.8325 27.9976 18.89 27.9926C19.2936 27.9599 19.6776 27.8046 19.9904 27.5474C20.3032 27.2902 20.5299 26.9435 20.64 26.5538L27.915 2.56134C27.915 2.55509 27.915 2.54884 27.915 2.54259C28.0129 2.20129 28.0182 1.84008 27.9304 1.49606C27.8425 1.15204 27.6646 0.837618 27.415 0.585088ZM18.7288 25.9813L18.7225 25.9988L13.8025 15.6126L19.7075 9.70634C19.8871 9.51728 19.9858 9.26552 19.9824 9.00476C19.9791 8.744 19.874 8.49486 19.6896 8.31046C19.5052 8.12606 19.2561 8.02099 18.9953 8.01765C18.7346 8.01431 18.4828 8.11297 18.2938 8.29259L12.3875 14.1976L2.00001 9.27759H2.01751L26 2.00009L18.7288 25.9813Z" fill="black"/>
</svg>
