<svg width="37" height="37" viewBox="0 0 37 37" fill="none" xmlns="http://www.w3.org/2000/svg">
<path d="M18.5 0.21875C14.8843 0.21875 11.3498 1.29093 8.34349 3.2997C5.33715 5.30847 2.994 8.16361 1.61034 11.5041C0.226671 14.8445 -0.135359 18.5203 0.570027 22.0665C1.27541 25.6127 3.01653 28.8701 5.57321 31.4268C8.12989 33.9835 11.3873 35.7246 14.9335 36.43C18.4797 37.1354 22.1555 36.7733 25.4959 35.3897C28.8364 34.006 31.6915 31.6629 33.7003 28.6565C35.7091 25.6502 36.7813 22.1157 36.7813 18.5C36.7761 13.6531 34.8484 9.00615 31.4212 5.57886C27.9939 2.15157 23.3469 0.223868 18.5 0.21875ZM18.5 33.9688C15.4406 33.9688 12.4499 33.0615 9.90603 31.3618C7.36221 29.6621 5.37954 27.2462 4.20875 24.4196C3.03795 21.5931 2.73162 18.4828 3.32849 15.4822C3.92535 12.4816 5.39861 9.72529 7.56195 7.56194C9.72529 5.3986 12.4816 3.92534 15.4822 3.32848C18.4828 2.73161 21.5931 3.03795 24.4196 4.20874C27.2462 5.37953 29.6621 7.3622 31.3618 9.90602C33.0615 12.4498 33.9688 15.4406 33.9688 18.5C33.9641 22.6011 32.3329 26.533 29.4329 29.4329C26.533 32.3329 22.6011 33.9641 18.5 33.9688ZM20.6094 18.5C20.6094 18.9172 20.4857 19.325 20.2539 19.6719C20.0221 20.0188 19.6927 20.2892 19.3072 20.4488C18.9218 20.6085 18.4977 20.6502 18.0885 20.5688C17.6793 20.4875 17.3035 20.2866 17.0085 19.9916C16.7135 19.6966 16.5126 19.3207 16.4312 18.9115C16.3498 18.5023 16.3915 18.0782 16.5512 17.6928C16.7109 17.3073 16.9812 16.9779 17.3281 16.7461C17.675 16.5143 18.0828 16.3906 18.5 16.3906C19.0594 16.3906 19.596 16.6129 19.9916 17.0084C20.3871 17.404 20.6094 17.9406 20.6094 18.5ZM28.3438 18.5C28.3438 18.9172 28.22 19.325 27.9883 19.6719C27.7565 20.0188 27.427 20.2892 27.0416 20.4488C26.6562 20.6085 26.232 20.6502 25.8229 20.5688C25.4137 20.4875 25.0378 20.2866 24.7428 19.9916C24.4478 19.6966 24.2469 19.3207 24.1655 18.9115C24.0841 18.5023 24.1259 18.0782 24.2856 17.6928C24.4452 17.3073 24.7156 16.9779 25.0625 16.7461C25.4094 16.5143 25.8172 16.3906 26.2344 16.3906C26.7938 16.3906 27.3304 16.6129 27.7259 17.0084C28.1215 17.404 28.3438 17.9406 28.3438 18.5ZM12.875 18.5C12.875 18.9172 12.7513 19.325 12.5195 19.6719C12.2877 20.0188 11.9583 20.2892 11.5729 20.4488C11.1874 20.6085 10.7633 20.6502 10.3541 20.5688C9.94494 20.4875 9.56908 20.2866 9.27408 19.9916C8.97908 19.6966 8.77818 19.3207 8.69679 18.9115C8.6154 18.5023 8.65717 18.0782 8.81682 17.6928C8.97648 17.3073 9.24684 16.9779 9.59373 16.7461C9.94061 16.5143 10.3484 16.3906 10.7656 16.3906C11.3251 16.3906 11.8616 16.6129 12.2572 17.0084C12.6528 17.404 12.875 17.9406 12.875 18.5Z" fill="white"/>
</svg>
